<?xml version="1.0" encoding="UTF-8" standalone="no"?><!-- Generator: Gravit.io -->
<svg xmlns="http://www.w3.org/2000/svg" xmlns:xlink="http://www.w3.org/1999/xlink" style="isolation:isolate" viewBox="0 0 90 17.5" width="90pt" height="17.5pt"><defs><clipPath id="_clipPath_dpMocH1YHdYKneNRySAScVGRY4F28FLB"><rect width="90" height="17.5"/></clipPath></defs><g clip-path="url(#_clipPath_dpMocH1YHdYKneNRySAScVGRY4F28FLB)"><g><path d=" M 76.517 7.005 L 83.103 7.005 L 82.219 8.922 L 78.433 8.922 L 78.433 13.144 L 82.926 13.144 C 85.323 12.826 87.176 10.833 87.176 8.431 C 87.176 6.029 85.323 4.036 82.926 3.718 L 76.542 3.718 L 76.542 1.802 L 82.253 1.802 C 84.116 1.802 85.803 2.533 87.03 3.718 L 87.03 3.718 C 88.276 4.919 89.048 6.587 89.048 8.431 C 89.048 10.275 88.276 11.943 87.03 13.144 L 87.03 13.144 C 85.803 14.329 84.116 15.06 82.253 15.06 L 76.517 15.06 L 76.517 7.005 Z "/><path d=" M 37.602 3.677 C 40.212 3.677 42.335 5.801 42.335 8.411 C 42.335 11.021 40.212 13.144 37.602 13.144 C 34.992 13.144 32.869 11.021 32.869 8.411 C 32.869 5.801 34.992 3.677 37.602 3.677 Z  M 30.952 8.411 C 30.952 12.083 33.93 15.06 37.602 15.06 C 41.274 15.06 44.251 12.083 44.251 8.411 C 44.252 4.738 41.275 1.761 37.602 1.761 C 33.93 1.761 30.952 4.738 30.952 8.411 Z  M 46.152 15.06 L 48.069 15.06 L 48.069 7.703 L 46.152 5.787 L 46.152 15.06 Z  M 52.123 7.693 L 46.152 1.722 L 46.152 4.433 L 48.069 6.349 L 48.069 6.349 L 52.123 10.403 L 52.852 9.675 L 53.479 9.049 L 56.086 6.441 L 56.086 15.06 L 58.003 15.06 L 58.003 1.814 L 52.123 7.693 Z  M 59.912 15.06 L 59.912 1.747 L 61.829 1.747 L 61.829 15.06 L 59.912 15.06 Z  M 61.765 1.811 L 59.976 1.811 L 59.976 14.996 L 61.765 14.996 L 61.765 1.811 L 61.765 1.811 Z  M 59.912 1.747 L 59.912 15.06 L 61.829 15.06 L 61.829 1.747 L 59.912 1.747 Z  M 63.732 15.06 L 65.649 15.06 L 65.649 7.725 L 63.732 5.808 L 63.732 15.06 Z  M 72.363 1.769 L 72.363 10.373 L 63.732 1.743 L 63.732 4.453 L 65.649 6.369 L 65.649 6.368 L 72.363 13.083 L 74.279 14.999 L 74.279 1.769 L 72.363 1.769 Z "/><path d=" M 27.131 7.647 L 27.131 1.776 L 29.048 1.776 L 29.048 9.564 L 27.22 7.736 L 27.131 7.647 Z  M 23.827 8.418 L 17.187 1.776 L 19.896 1.776 L 25.556 7.437 L 27.131 9.012 L 27.131 9.001 L 29.048 10.918 L 29.048 15.06 L 27.131 15.06 L 27.131 11.722 L 25.183 9.773 L 19.896 15.06 L 17.185 15.06 L 23.827 8.418 Z "/><path d=" M 0.952 15.06 L 0.952 1.747 L 2.869 1.747 L 2.869 15.06 L 0.952 15.06 Z  M 2.805 1.811 L 1.016 1.811 L 1.016 14.996 L 2.805 14.996 L 2.805 1.811 L 2.805 1.811 Z  M 0.952 1.747 L 0.952 15.06 L 2.869 15.06 L 2.869 1.747 L 0.952 1.747 Z  M 4.772 15.06 L 6.689 15.06 L 6.689 7.725 L 4.772 5.808 L 4.772 15.06 Z  M 13.403 1.769 L 13.403 10.373 L 4.772 1.743 L 4.772 4.453 L 6.689 6.369 L 6.689 6.368 L 13.403 13.083 L 15.319 14.999 L 15.319 1.769 L 13.403 1.769 Z "/></g></g></svg>
