<?xml version="1.0" encoding="UTF-8" standalone="no"?><!-- Generator: Gravit.io --><svg xmlns="http://www.w3.org/2000/svg" xmlns:xlink="http://www.w3.org/1999/xlink" style="isolation:isolate" viewBox="0 0 512 512" width="512pt" height="512pt"><defs><clipPath id="_clipPath_qisa1HhshBOAqrocThpGEoHxS7LULsJk"><rect width="512" height="512"/></clipPath></defs><g clip-path="url(#_clipPath_qisa1HhshBOAqrocThpGEoHxS7LULsJk)"><circle vector-effect="non-scaling-stroke" cx="256" cy="256" r="256" fill="rgb(39,53,84)"/><g><g><path d=" M 389.614 86 L 70.065 303.582 C 67.644 304.945 65.32 306.56 63.129 308.433 C 44.985 323.956 42.86 351.25 58.385 369.394 C 73.909 387.539 101.201 389.662 119.345 374.139 C 121.536 372.263 123.491 370.217 125.211 368.036 L 389.614 86 Z " fill="rgb(255,141,7)"/><path d=" M 352.981 117.342 L 72.895 308.212 C 70.78 309.402 68.749 310.814 66.836 312.451 C 50.984 326.013 49.127 349.858 62.69 365.709 C 76.252 381.561 100.097 383.417 115.949 369.856 C 117.862 368.218 119.57 366.429 121.074 364.524 L 352.981 117.342 Z " fill="rgb(255,181,15)"/><path d=" M 287.889 173.034 L 76.181 317.112 C 74.584 318.014 73.049 319.077 71.602 320.314 C 59.559 330.618 58.149 348.734 68.454 360.779 C 78.758 372.823 96.875 374.233 108.919 363.928 C 110.365 362.69 111.654 361.339 112.791 359.9 L 287.889 173.034 Z " fill="rgb(255,214,110)"/><circle vector-effect="non-scaling-stroke" cx="92.34318674929457" cy="340.3391611833238" r="21.88002883385873" fill="rgb(255,255,255)"/></g><g><path d=" M 491.902 160.026 L 259.873 318.016 C 258.114 319.006 256.426 320.178 254.836 321.538 C 241.66 332.811 240.118 352.629 251.39 365.803 C 262.663 378.979 282.48 380.521 295.655 369.249 C 297.246 367.889 298.665 366.402 299.914 364.819 L 491.902 160.026 Z " fill="rgb(255,141,7)"/><path d=" M 465.302 182.784 L 261.928 321.378 C 260.393 322.244 258.917 323.266 257.528 324.456 C 246.018 334.304 244.67 351.618 254.518 363.128 C 264.366 374.639 281.68 375.986 293.19 366.138 C 294.579 364.948 295.819 363.65 296.911 362.266 L 465.302 182.784 Z " fill="rgb(255,181,15)"/><path d=" M 418.038 223.223 L 264.313 327.839 C 263.154 328.495 262.04 329.266 260.989 330.164 C 252.244 337.646 251.22 350.802 258.702 359.546 C 266.183 368.292 279.34 369.315 288.084 361.834 C 289.134 360.935 290.069 359.953 290.896 358.908 L 418.038 223.223 Z " fill="rgb(255,214,110)"/><circle vector-effect="non-scaling-stroke" cx="276.04864976014215" cy="344.70603229814117" r="15.887950892172853" fill="rgb(255,255,255)"/></g></g><g><rect x="169.319" y="134.86" width="15.711" height="109.717" transform="matrix(0.852,-0.523,0.523,0.852,-73.072,120.721)" fill="rgb(97,201,214)"/><circle vector-effect="non-scaling-stroke" cx="151.46" cy="147.811" r="16.424000000000007" fill="rgb(144,236,255)"/><rect x="332.847" y="134.994" width="15.71" height="109.717" transform="matrix(-0.852,-0.523,0.523,-0.852,531.741,529.89)" fill="rgb(97,201,214)"/><circle vector-effect="non-scaling-stroke" cx="366.321" cy="147.811" r="16.423000000000002" fill="rgb(144,236,255)"/><path d=" M 197.998 530.735 L 198.001 530.733 L 197.999 530.733 L 197.998 530.735 Z " fill="rgb(118,216,229)"/><circle vector-effect="non-scaling-stroke" cx="257.766" cy="301.766" r="122.113" fill="rgb(144,236,255)"/><path d=" M 135.654 481.988 C 171.531 501.134 212.494 512 256 512 C 300.941 512 343.169 500.405 379.879 480.065 L 379.879 301.765 L 135.654 301.765 L 135.654 481.988 L 135.654 481.988 Z " fill="rgb(144,236,255)"/><circle vector-effect="non-scaling-stroke" cx="257.036" cy="277.838" r="60.670000000000016" fill="rgb(118,216,229)"/><circle vector-effect="non-scaling-stroke" cx="257.037" cy="277.838" r="51.97500000000002" fill="rgb(255,255,255)"/><circle vector-effect="non-scaling-stroke" cx="257.037" cy="277.838" r="34.778999999999996" fill="rgb(0,44,64)"/><circle vector-effect="non-scaling-stroke" cx="257.037" cy="389.007" r="41.34800000000001" fill="rgb(118,216,229)"/><circle vector-effect="non-scaling-stroke" cx="257.037" cy="389.00700000000006" r="35.42199999999997" fill="rgb(255,255,255)"/><circle vector-effect="non-scaling-stroke" cx="257.037" cy="389.007" r="23.702999999999975" fill="rgb(0,44,64)"/><g><path d=" M 257.037 486.356 C 272.118 486.356 284.345 474.129 284.345 459.047 L 229.729 459.047 C 229.729 474.13 241.955 486.356 257.037 486.356 Z " fill="rgb(35,31,32)"/></g><path d=" M 240.49 480.736 C 245.085 484.247 250.808 486.356 257.037 486.356 C 263.266 486.356 268.988 484.247 273.583 480.736 C 271.24 473.84 264.726 468.87 257.037 468.87 C 249.348 468.87 242.833 473.84 240.49 480.736 Z " fill="rgb(255,79,84)"/><circle vector-effect="non-scaling-stroke" cx="167.886" cy="295.017" r="2.6270000000000095" fill="rgb(118,216,229)"/><circle vector-effect="non-scaling-stroke" cx="188.134" cy="446.184" r="2.6270000000000095" fill="rgb(118,216,229)"/><circle vector-effect="non-scaling-stroke" cx="150.265" cy="432.983" r="2.6270000000000095" fill="rgb(118,216,229)"/><circle vector-effect="non-scaling-stroke" cx="154.387" cy="331.75800000000004" r="11.772999999999996" fill="rgb(118,216,229)"/><circle vector-effect="non-scaling-stroke" cx="325.305" cy="440.525" r="11.773000000000025" fill="rgb(118,216,229)"/><circle vector-effect="non-scaling-stroke" cx="189.617" cy="351.806" r="6.75" fill="rgb(118,216,229)"/><circle vector-effect="non-scaling-stroke" cx="337.078" cy="325.009" r="6.75" fill="rgb(118,216,229)"/><circle vector-effect="non-scaling-stroke" cx="343.828" cy="291.337" r="3.7649999999999864" fill="rgb(118,216,229)"/><circle vector-effect="non-scaling-stroke" cx="357.454" cy="358.555" r="3.271000000000015" fill="rgb(118,216,229)"/><circle vector-effect="non-scaling-stroke" cx="323.579" cy="351.806" r="6.749000000000024" fill="rgb(118,216,229)"/><circle vector-effect="non-scaling-stroke" cx="154.387" cy="384.596" r="6.75" fill="rgb(118,216,229)"/><circle vector-effect="non-scaling-stroke" cx="196.367" cy="477.613" r="6.75" fill="rgb(118,216,229)"/><circle vector-effect="non-scaling-stroke" cx="340.558" cy="488.433" r="6.75" fill="rgb(118,216,229)"/><circle vector-effect="non-scaling-stroke" cx="330.329" cy="384.596" r="6.75" fill="rgb(118,216,229)"/><circle vector-effect="non-scaling-stroke" cx="357.454" cy="410.079" r="6.749000000000024" fill="rgb(118,216,229)"/><circle vector-effect="non-scaling-stroke" cx="181.385" cy="412.71" r="6.75" fill="rgb(118,216,229)"/><circle vector-effect="non-scaling-stroke" cx="163.152" cy="459.048" r="6.748999999999995" fill="rgb(118,216,229)"/><circle vector-effect="non-scaling-stroke" cx="205.062" cy="212.879" r="6.75" fill="rgb(118,216,229)"/><circle vector-effect="non-scaling-stroke" cx="288.327" cy="212.879" r="6.75" fill="rgb(118,216,229)"/><circle vector-effect="non-scaling-stroke" cx="330.329" cy="245.339" r="6.75" fill="rgb(118,216,229)"/><circle vector-effect="non-scaling-stroke" cx="177.224" cy="256.674" r="6.75" fill="rgb(118,216,229)"/><circle vector-effect="non-scaling-stroke" cx="245.84300000000002" cy="271.713" r="12.509000000000015" fill="rgb(255,255,255)"/><circle vector-effect="non-scaling-stroke" cx="249.911" cy="384.596" r="8.288999999999987" fill="rgb(255,255,255)"/></g><g><path d=" M 117.199 160.774 C 103.76 160.774 92.866 149.88 92.866 136.441 C 92.866 149.88 81.971 160.774 68.533 160.774 C 81.972 160.774 92.866 171.669 92.866 185.107 C 92.866 171.669 103.76 160.774 117.199 160.774 Z " fill="rgb(255,255,255)"/><path d=" M 463.412 312.616 C 455.521 312.616 449.125 306.22 449.125 298.329 C 449.125 306.22 442.728 312.616 434.837 312.616 C 442.728 312.616 449.125 319.013 449.125 326.904 C 449.125 319.014 455.521 312.616 463.412 312.616 Z " fill="rgb(255,255,255)"/><path d=" M 315.284 64.642 C 308.545 64.642 303.081 59.179 303.081 52.439 C 303.081 59.178 297.618 64.642 290.879 64.642 C 297.618 64.642 303.081 70.105 303.081 76.845 C 303.081 70.105 308.545 64.642 315.284 64.642 Z " fill="rgb(255,255,255)"/><path d=" M 243.813 130.659 C 235.922 130.659 229.525 124.263 229.525 116.371 C 229.525 124.263 223.128 130.659 215.237 130.659 C 223.128 130.659 229.525 137.056 229.525 144.947 C 229.525 137.056 235.922 130.659 243.813 130.659 Z " fill="rgb(255,255,255)"/></g></g></svg>